<svg id="Icons" xmlns="http://www.w3.org/2000/svg" viewBox="0 0 20 20"><defs><style>.cls-1{fill:#fff;}</style></defs><path class="cls-1" d="M12.71.4v4c0,1,0,1,1,1h4.08"/><path class="cls-1" d="M2,18.8c0,.8,0,.8.8.8H17.2c.8,0,.8,0,.8-.8V17.66H2Z"/><path class="cls-1" d="M18,6.73H13.64c-1.85,0-2.26-.5-2.26-2.26V.4H2.8C2,.4,2,.4,2,1.2V8H18Z"/><path class="cls-1" d="M18,8.46H2a2,2,0,0,0-2,2v4.71a2,2,0,0,0,2,2H18a2,2,0,0,0,2-2V10.46A2,2,0,0,0,18,8.46ZM5,15.61l-1.11-1.8-1.11,1.8H.83l1.93-2.92L1,10H2.91l1,1.72,1-1.72H6.75L5,12.72l1.91,2.89Zm8.78,0H12.33V11.34l-1.09,4.27H10L8.87,11.34v4.27H7.45V10H9.72l.88,3.41L11.47,10h2.27Zm5.53,0H14.85V10h1.73v4.22h2.7Z"/></svg>